<mxfile host="app.diagrams.net" modified="2023-10-25T09:14:52.006Z" agent="Mozilla/5.0 (Windows NT 10.0; Win64; x64) AppleWebKit/537.36 (KHTML, like Gecko) Chrome/118.0.0.0 Safari/537.36" etag="RJ-zUlnocCkTtIuMsxBQ" version="22.0.7" type="github">
  <diagram name="페이지-1" id="KjHIwjk8qQxe580AyB5Y">
    <mxGraphModel dx="1969" dy="882" grid="1" gridSize="10" guides="1" tooltips="1" connect="1" arrows="1" fold="1" page="1" pageScale="1" pageWidth="1169" pageHeight="827" math="0" shadow="0">
      <root>
        <mxCell id="0" />
        <mxCell id="1" parent="0" />
        <mxCell id="pqeZuVTHKIWcZpY808t6-15" style="edgeStyle=orthogonalEdgeStyle;rounded=0;orthogonalLoop=1;jettySize=auto;html=1;entryX=0.5;entryY=0;entryDx=0;entryDy=0;" edge="1" parent="1" source="pqeZuVTHKIWcZpY808t6-1" target="pqeZuVTHKIWcZpY808t6-14">
          <mxGeometry relative="1" as="geometry" />
        </mxCell>
        <mxCell id="pqeZuVTHKIWcZpY808t6-1" value="수동 동작 준비" style="ellipse;whiteSpace=wrap;html=1;" vertex="1" parent="1">
          <mxGeometry x="120" y="80" width="120" height="60" as="geometry" />
        </mxCell>
        <mxCell id="pqeZuVTHKIWcZpY808t6-2" value="위치 정보 저장" style="ellipse;whiteSpace=wrap;html=1;" vertex="1" parent="1">
          <mxGeometry x="120" y="550" width="120" height="60" as="geometry" />
        </mxCell>
        <mxCell id="pqeZuVTHKIWcZpY808t6-6" value="" style="edgeStyle=orthogonalEdgeStyle;rounded=0;orthogonalLoop=1;jettySize=auto;html=1;" edge="1" parent="1" source="pqeZuVTHKIWcZpY808t6-3" target="pqeZuVTHKIWcZpY808t6-5">
          <mxGeometry relative="1" as="geometry" />
        </mxCell>
        <mxCell id="pqeZuVTHKIWcZpY808t6-3" value="로봇의 &quot;직접교시&quot; 제어 신호 전달" style="whiteSpace=wrap;html=1;" vertex="1" parent="1">
          <mxGeometry x="120" y="260" width="120" height="60" as="geometry" />
        </mxCell>
        <mxCell id="pqeZuVTHKIWcZpY808t6-26" style="edgeStyle=orthogonalEdgeStyle;rounded=0;orthogonalLoop=1;jettySize=auto;html=1;exitX=0.5;exitY=1;exitDx=0;exitDy=0;entryX=0.5;entryY=0;entryDx=0;entryDy=0;" edge="1" parent="1" source="pqeZuVTHKIWcZpY808t6-5" target="pqeZuVTHKIWcZpY808t6-25">
          <mxGeometry relative="1" as="geometry" />
        </mxCell>
        <mxCell id="pqeZuVTHKIWcZpY808t6-5" value="직접교시 종료 신호" style="rhombus;whiteSpace=wrap;html=1;" vertex="1" parent="1">
          <mxGeometry x="120" y="350" width="120" height="80" as="geometry" />
        </mxCell>
        <mxCell id="pqeZuVTHKIWcZpY808t6-13" value="" style="edgeStyle=orthogonalEdgeStyle;rounded=0;orthogonalLoop=1;jettySize=auto;html=1;" edge="1" parent="1" source="pqeZuVTHKIWcZpY808t6-8" target="pqeZuVTHKIWcZpY808t6-12">
          <mxGeometry relative="1" as="geometry" />
        </mxCell>
        <mxCell id="pqeZuVTHKIWcZpY808t6-8" value="작업자가 작업 위치를 선정" style="rounded=0;whiteSpace=wrap;html=1;" vertex="1" parent="1">
          <mxGeometry x="300" y="170" width="130" height="60" as="geometry" />
        </mxCell>
        <mxCell id="pqeZuVTHKIWcZpY808t6-19" value="" style="edgeStyle=orthogonalEdgeStyle;rounded=0;orthogonalLoop=1;jettySize=auto;html=1;" edge="1" parent="1" source="pqeZuVTHKIWcZpY808t6-12" target="pqeZuVTHKIWcZpY808t6-18">
          <mxGeometry relative="1" as="geometry" />
        </mxCell>
        <mxCell id="pqeZuVTHKIWcZpY808t6-12" value="로봇의 현재 위치 &lt;br&gt;HMI 임시 데이터 저장" style="whiteSpace=wrap;html=1;rounded=0;" vertex="1" parent="1">
          <mxGeometry x="305" y="260" width="120" height="60" as="geometry" />
        </mxCell>
        <mxCell id="pqeZuVTHKIWcZpY808t6-16" style="edgeStyle=orthogonalEdgeStyle;rounded=0;orthogonalLoop=1;jettySize=auto;html=1;entryX=0.5;entryY=0;entryDx=0;entryDy=0;" edge="1" parent="1" source="pqeZuVTHKIWcZpY808t6-14" target="pqeZuVTHKIWcZpY808t6-3">
          <mxGeometry relative="1" as="geometry" />
        </mxCell>
        <mxCell id="pqeZuVTHKIWcZpY808t6-14" value="HMI 메뉴얼 준비" style="rounded=0;whiteSpace=wrap;html=1;" vertex="1" parent="1">
          <mxGeometry x="120" y="170" width="120" height="60" as="geometry" />
        </mxCell>
        <mxCell id="pqeZuVTHKIWcZpY808t6-21" style="edgeStyle=orthogonalEdgeStyle;rounded=0;orthogonalLoop=1;jettySize=auto;html=1;entryX=0;entryY=0.5;entryDx=0;entryDy=0;" edge="1" parent="1" source="pqeZuVTHKIWcZpY808t6-18" target="pqeZuVTHKIWcZpY808t6-20">
          <mxGeometry relative="1" as="geometry" />
        </mxCell>
        <mxCell id="pqeZuVTHKIWcZpY808t6-22" style="edgeStyle=orthogonalEdgeStyle;rounded=0;orthogonalLoop=1;jettySize=auto;html=1;entryX=1;entryY=0.5;entryDx=0;entryDy=0;" edge="1" parent="1" source="pqeZuVTHKIWcZpY808t6-18" target="pqeZuVTHKIWcZpY808t6-5">
          <mxGeometry relative="1" as="geometry" />
        </mxCell>
        <mxCell id="pqeZuVTHKIWcZpY808t6-18" value="HMI 임시 데이터를 PLC 데이터베이스에 저장" style="whiteSpace=wrap;html=1;rounded=0;" vertex="1" parent="1">
          <mxGeometry x="305" y="360" width="120" height="60" as="geometry" />
        </mxCell>
        <mxCell id="pqeZuVTHKIWcZpY808t6-27" style="edgeStyle=orthogonalEdgeStyle;rounded=0;orthogonalLoop=1;jettySize=auto;html=1;entryX=1;entryY=0.5;entryDx=0;entryDy=0;exitX=0.5;exitY=1;exitDx=0;exitDy=0;" edge="1" parent="1" source="pqeZuVTHKIWcZpY808t6-20" target="pqeZuVTHKIWcZpY808t6-25">
          <mxGeometry relative="1" as="geometry" />
        </mxCell>
        <mxCell id="pqeZuVTHKIWcZpY808t6-20" value="&amp;nbsp;Store to working position in PLC K-Memory" style="shape=datastore;whiteSpace=wrap;html=1;" vertex="1" parent="1">
          <mxGeometry x="500" y="340" width="100" height="100" as="geometry" />
        </mxCell>
        <mxCell id="pqeZuVTHKIWcZpY808t6-23" value="End Sign" style="text;html=1;strokeColor=none;fillColor=none;align=center;verticalAlign=middle;whiteSpace=wrap;rounded=0;" vertex="1" parent="1">
          <mxGeometry x="240" y="360" width="60" height="30" as="geometry" />
        </mxCell>
        <mxCell id="pqeZuVTHKIWcZpY808t6-28" style="edgeStyle=orthogonalEdgeStyle;rounded=0;orthogonalLoop=1;jettySize=auto;html=1;entryX=0.5;entryY=0;entryDx=0;entryDy=0;" edge="1" parent="1" source="pqeZuVTHKIWcZpY808t6-25" target="pqeZuVTHKIWcZpY808t6-2">
          <mxGeometry relative="1" as="geometry" />
        </mxCell>
        <mxCell id="pqeZuVTHKIWcZpY808t6-25" value="HMI의 작업 위치 &lt;br&gt;데이터 갱신&amp;nbsp;" style="rounded=0;whiteSpace=wrap;html=1;" vertex="1" parent="1">
          <mxGeometry x="120" y="460" width="120" height="60" as="geometry" />
        </mxCell>
        <mxCell id="pqeZuVTHKIWcZpY808t6-29" value="Save" style="text;html=1;strokeColor=none;fillColor=none;align=center;verticalAlign=middle;whiteSpace=wrap;rounded=0;" vertex="1" parent="1">
          <mxGeometry x="440" y="360" width="60" height="30" as="geometry" />
        </mxCell>
        <mxCell id="pqeZuVTHKIWcZpY808t6-30" value="Load" style="text;html=1;strokeColor=none;fillColor=none;align=center;verticalAlign=middle;whiteSpace=wrap;rounded=0;" vertex="1" parent="1">
          <mxGeometry x="490" y="440" width="60" height="30" as="geometry" />
        </mxCell>
      </root>
    </mxGraphModel>
  </diagram>
</mxfile>
